<svg xmlns="http://www.w3.org/2000/svg" width="44.38" height="44.19" viewBox="0 0 44.38 44.19">
  <g id="Group_1120" data-name="Group 1120" transform="translate(0 -8.19)" style="isolation: isolate">
    <path id="Path_186" data-name="Path 186" d="M18.19,0A18.19,18.19,0,1,1,0,18.19,18.19,18.19,0,0,1,18.19,0Z" transform="translate(8 16)" fill="#fa5c50"/>
    <path id="Path_195" data-name="Path 195" d="M13.1,0A13.1,13.1,0,1,1,0,13.1,13.1,13.1,0,0,1,13.1,0Z" transform="translate(0 8.19)" fill="#f3f4fd" opacity="0.998"/>
    <path id="Intersection_2" data-name="Intersection 2" d="M-4928.981-3184.83a18.192,18.192,0,0,1,17.076-17.327,13.057,13.057,0,0,1,1.1,5.253,13.094,13.094,0,0,1-13.1,13.094A13.058,13.058,0,0,1-4928.981-3184.83Z" transform="translate(4937 3218.19)" fill="#feefee"/>
  </g>
</svg>
