<svg xmlns="http://www.w3.org/2000/svg" width="174.118" height="173.372" viewBox="0 0 174.118 173.372">
  <g id="Group_1118" data-name="Group 1118" transform="translate(0 -63.132)" style="isolation: isolate">
    <path id="Path_186" data-name="Path 186" d="M71.365,0A71.365,71.365,0,1,1,0,71.365,71.365,71.365,0,0,1,71.365,0Z" transform="translate(31.387 93.773)" fill="#fa5c50"/>
    <path id="Path_195" data-name="Path 195" d="M51.4,0A51.4,51.4,0,1,1,0,51.4,51.4,51.4,0,0,1,51.4,0Z" transform="translate(0 63.132)" fill="#4e67f2"/>
    <path id="Intersection_1" data-name="Intersection 1" d="M-5050.542,732.181a71.374,71.374,0,0,1,67.026-68.014,51.21,51.21,0,0,1,4.308,20.628,51.4,51.4,0,0,1-51.4,51.4A51.239,51.239,0,0,1-5050.542,732.181Z" transform="translate(5082 -570.268)" fill="#4f274f"/>
  </g>
</svg>
